<svg width="49" height="49" viewBox="0 0 49 49" fill="none" xmlns="http://www.w3.org/2000/svg">
<path d="M24.5 13.25C24.5 19.4632 19.4632 24.5 13.25 24.5H2V13.25C2 7.03679 7.03679 2 13.25 2C19.4632 2 24.5 7.03679 24.5 13.25Z" fill="#17B7EA"/>
<path d="M24.5 35.75C24.5 29.5368 29.5368 24.5 35.75 24.5H47V35.75C47 41.9632 41.9632 47 35.75 47C29.5368 47 24.5 41.9632 24.5 35.75Z" fill="#17B7EA"/>
<path d="M2 35.75C2 41.9632 7.03679 47 13.25 47H24.5V35.75C24.5 29.5368 19.4632 24.5 13.25 24.5C7.03679 24.5 2 29.5368 2 35.75Z" fill="#17B7EA"/>
<path d="M47 13.25C47 7.03679 41.9632 2 35.75 2H24.5V13.25C24.5 19.4632 29.5368 24.5 35.75 24.5C41.9632 24.5 47 19.4632 47 13.25Z" fill="#17B7EA"/>
<path d="M256 8C119 8 8 119 8 256s111 248 248 248 248-111 248-248S393 8 256 8zm0 448c-110.5 0-200-89.5-200-200S145.5 56 256 56s200 89.5 200 200-89.5 200-200 200zm61.8-104.4l-84.9-61.7c-3.1-2.3-4.9-5.9-4.9-9.7V116c0-6.6 5.4-12 12-12h32c6.6 0 12 5.4 12 12v141.7l66.8 48.6c5.4 3.9 6.5 11.4 2.6 16.8L334.6 349c-3.9 5.3-11.4 6.5-16.8 2.6z" fill="#17B7EA"/>
</svg>
